<?xml version="1.0" standalone="no"?>
<!DOCTYPE svg PUBLIC "-//W3C//DTD SVG 20010904//EN"
 "http://www.w3.org/TR/2001/REC-SVG-20010904/DTD/svg10.dtd">
<svg version="1.0" xmlns="http://www.w3.org/2000/svg"
 width="637.000000pt" height="629.000000pt" viewBox="0 0 637.000000 629.000000"
 preserveAspectRatio="xMidYMid meet">
<metadata>
Created by potrace 1.15, written by Peter Selinger 2001-2017
</metadata>
<g transform="translate(0.000000,629.000000) scale(0.100000,-0.100000)"
fill="#000000" stroke="none">
<path d="M2905 6174 c-526 -58 -963 -214 -1385 -493 -826 -546 -1334 -1454
-1366 -2441 -21 -641 156 -1259 511 -1790 112 -166 222 -297 390 -466 223
-224 420 -373 673 -513 756 -417 1635 -494 2457 -216 321 109 611 267 905 494
114 87 420 394 505 506 261 342 429 675 543 1075 179 631 139 1342 -111 1950
-111 271 -214 452 -389 685 -411 549 -995 945 -1653 1120 -351 93 -750 126
-1080 89z m66 -494 c-1 -25 -4 -46 -5 -47 0 -1 -39 -6 -86 -13 -248 -33 -555
-122 -736 -214 -29 -14 -55 -26 -59 -26 -21 0 -295 -172 -404 -254 -41 -31
-80 -56 -86 -56 -6 0 -23 13 -38 28 l-27 28 82 66 c98 77 208 151 298 200 36
19 86 47 111 61 219 120 511 210 864 265 89 14 91 14 86 -38z m554 35 c270
-30 635 -142 854 -262 25 -14 75 -42 111 -61 88 -48 219 -137 308 -207 l73
-58 -28 -29 c-15 -15 -32 -28 -38 -28 -6 0 -45 25 -86 56 -318 239 -664 395
-1044 468 -71 14 -156 28 -187 31 l-58 6 0 50 c0 43 2 50 18 45 9 -3 44 -8 77
-11z m-553 -574 l3 -379 -60 -12 c-202 -39 -441 -157 -601 -296 l-61 -53 -289
290 -288 290 29 24 c222 181 565 360 830 431 140 38 306 71 422 83 10 1 13
-86 15 -378z m568 364 c57 -7 236 -44 325 -69 187 -51 483 -186 635 -289 82
-56 220 -161 220 -167 0 -9 -555 -560 -564 -560 -5 0 -32 19 -60 43 -159 135
-360 234 -581 285 l-80 19 -3 377 -2 378 27 -6 c16 -3 53 -8 83 -11z m1713
-779 c201 -257 357 -567 446 -886 37 -134 50 -196 70 -347 l17 -123 -47 0 -47
0 -7 63 c-11 100 -54 303 -90 427 -89 297 -223 558 -418 809 l-58 74 33 33
c18 19 33 34 34 34 1 0 31 -38 67 -84z m-4000 46 l28 -29 -39 -49 c-68 -85
-159 -220 -217 -319 -30 -53 -55 -98 -55 -100 0 -2 -18 -41 -39 -87 -106 -225
-178 -476 -210 -726 -6 -46 -13 -87 -16 -91 -3 -7 -86 -4 -91 2 -3 3 33 241
46 302 41 204 143 487 234 655 19 36 46 85 59 110 61 112 242 360 262 360 6 0
23 -13 38 -28z m2078 -113 c301 -30 552 -146 767 -353 81 -78 178 -205 235
-306 74 -133 140 -347 149 -485 l3 -50 -1274 -2 -1274 -2 6 77 c14 169 96 393
204 556 207 312 551 523 923 565 108 12 146 12 261 0z m-1658 -307 l307 -308
-29 -60 c-50 -103 -90 -230 -111 -351 -11 -63 -20 -129 -20 -144 l0 -29 -409
0 -410 0 -3 -47 -3 -47 -84 2 c-46 1 -85 3 -86 4 -9 9 31 239 60 354 71 277
166 493 318 724 60 91 149 210 157 210 3 0 144 -138 313 -308z m3434 231 c231
-307 404 -717 452 -1068 7 -44 14 -95 17 -112 l5 -33 -66 0 -65 0 0 45 0 45
-425 0 -425 0 0 34 c0 107 -49 299 -117 459 l-46 109 299 299 c165 164 302
299 306 299 3 0 33 -35 65 -77z m-3389 -1396 l2 -178 86 3 85 3 70 165 c39 91
73 171 76 178 3 8 19 12 41 10 l35 -3 88 -200 c48 -110 88 -206 88 -212 1 -17
-48 -28 -68 -16 -9 5 -25 28 -35 51 l-19 42 -88 0 -87 0 -23 -47 -24 -48 -145
-3 c-127 -2 -146 -1 -157 15 -17 22 -18 375 -2 404 8 15 19 19 42 17 l32 -3 3
-178z m1004 172 c54 -12 86 -28 126 -63 29 -26 28 -49 -3 -66 -22 -12 -28 -11
-48 8 -34 32 -91 52 -147 52 -59 0 -93 -15 -135 -60 -25 -26 -30 -40 -30 -78
0 -86 68 -142 173 -142 52 0 67 5 113 36 44 29 57 34 72 25 15 -10 20 -7 33
26 113 274 114 275 157 271 30 -3 33 -8 101 -165 39 -90 73 -163 76 -163 3 0
4 66 4 146 -1 80 1 155 4 166 5 19 11 20 118 16 103 -4 116 -7 160 -34 31 -19
56 -44 70 -72 l23 -43 3 73 3 73 110 0 c122 -1 173 -18 214 -72 l20 -28 1 46
c0 33 5 49 16 53 9 3 147 6 308 6 302 0 316 -2 316 -41 0 -28 -18 -35 -97 -38
l-33 -1 0 -175 0 -175 -25 -6 c-54 -13 -55 -9 -55 181 l0 175 -50 1 c-27 1
-57 2 -65 2 -8 0 -62 -1 -120 -2 l-105 -1 0 -75 0 -75 104 0 c63 0 107 -4 111
-11 4 -5 4 -21 1 -35 -6 -24 -8 -24 -111 -24 l-105 0 0 -30 0 -30 94 0 c51 0
108 -3 125 -6 29 -6 32 -10 29 -38 l-3 -31 -201 -1 -202 -2 -48 49 c-46 46
-51 49 -101 49 l-53 0 0 -45 c0 -39 -3 -45 -25 -51 -52 -13 -55 -5 -55 128 l0
123 -21 -43 c-12 -23 -34 -52 -49 -65 l-27 -22 44 -48 c37 -39 42 -51 33 -62
-24 -29 -63 -17 -115 35 -47 47 -52 50 -102 50 l-52 0 -3 -47 -3 -48 -65 0
-65 0 -25 47 -25 48 -87 0 -87 0 -20 -45 c-22 -50 -38 -60 -77 -51 -20 5 -25
12 -21 26 6 24 10 24 -48 -1 -33 -15 -70 -22 -119 -22 -197 -3 -318 163 -229
315 25 43 89 87 150 104 61 16 80 17 145 3z m2043 -41 c51 -109 155 -353 155
-365 0 -15 -43 -28 -65 -19 -8 3 -25 26 -37 51 l-22 45 -85 0 -86 0 -25 -48
c-21 -39 -30 -47 -58 -50 -22 -2 -34 2 -38 12 -3 8 26 89 65 180 39 91 71 169
71 173 0 5 9 23 20 41 15 25 27 32 50 32 27 0 33 -6 55 -52z m-4062 -408 c3
-3 12 -52 21 -110 65 -447 230 -841 499 -1189 31 -40 57 -74 57 -75 0 -1 -15
-17 -33 -35 l-34 -32 -55 68 c-282 351 -482 831 -533 1283 -4 30 -9 63 -11 72
-3 10 2 18 13 20 25 5 70 4 76 -2z m297 -51 l0 -49 470 0 469 0 47 -84 c26
-46 76 -124 113 -172 36 -48 70 -93 76 -101 8 -10 -88 -111 -400 -423 -225
-226 -412 -410 -416 -410 -7 0 -127 161 -171 230 -89 141 -175 311 -229 458
-49 132 -104 344 -119 454 -5 46 -13 97 -15 115 -7 38 -2 39 101 35 l74 -4 0
-49z m4575 24 c-2 -16 -9 -65 -15 -110 -32 -240 -138 -553 -268 -788 -50 -91
-152 -245 -191 -290 -14 -17 -34 -42 -43 -55 l-16 -25 -397 395 c-218 217
-400 402 -405 411 -8 13 4 33 48 85 62 74 123 168 166 252 l26 52 485 0 485 0
0 50 0 50 65 0 65 0 -5 -27z m211 10 c-3 -10 -12 -72 -21 -137 -9 -66 -32
-181 -51 -255 -47 -185 -97 -317 -205 -546 -53 -112 -164 -285 -271 -422 l-49
-62 -30 26 c-16 15 -29 32 -29 38 0 7 24 43 52 81 272 358 432 740 495 1182
l16 112 49 0 c42 0 49 -3 44 -17z m-3446 -183 l0 -100 35 0 35 0 0 -105 c0
-58 -3 -105 -6 -105 -3 0 -30 23 -60 51 l-54 52 0 153 0 154 25 0 25 0 0 -100z
m1800 -48 l0 -148 -55 -54 -55 -54 0 102 0 102 35 0 35 0 0 100 c0 93 1 100
20 100 19 0 20 -7 20 -148z m-1470 -237 c-1 -134 -5 -185 -13 -185 -7 0 -37
15 -67 33 l-55 33 -3 152 -3 152 71 0 71 0 -1 -185z m250 -45 c0 -160 -3 -230
-11 -230 -6 0 -35 7 -65 16 l-54 15 0 215 0 214 65 0 65 0 0 -230z m250 -21
l0 -252 -37 7 c-21 3 -50 6 -65 6 l-28 0 0 245 0 245 65 0 65 0 0 -251z m240
11 l0 -240 -22 -4 c-13 -3 -40 -7 -60 -9 l-38 -3 0 248 0 248 60 0 60 0 0
-240z m238 28 l-3 -212 -57 -17 -58 -17 0 229 0 229 60 0 60 0 -2 -212z m253
90 c3 -195 11 -171 -73 -218 l-58 -32 0 186 0 186 65 0 65 0 1 -122z m-1293
-354 c64 -29 149 -64 172 -70 8 -2 55 -14 104 -28 l89 -24 0 -621 c0 -342 -2
-623 -4 -625 -9 -9 -218 24 -334 53 -181 44 -313 93 -480 175 -181 90 -317
176 -465 293 -13 10 52 79 415 443 236 236 434 430 438 430 5 0 34 -12 65 -26z
m2112 -835 c0 -9 -156 -125 -230 -171 -83 -53 -256 -146 -335 -180 -172 -74
-427 -148 -581 -168 -44 -6 -94 -13 -111 -16 l-33 -5 0 631 0 630 26 0 c61 0
284 73 379 124 l30 16 427 -428 c236 -235 428 -430 428 -433z m-3004 -171
c336 -249 719 -404 1142 -465 l112 -16 0 -46 0 -47 -102 13 c-459 58 -886 235
-1256 521 l-83 65 32 33 c20 21 37 30 43 25 6 -5 57 -42 112 -83z m3123 58
l32 -33 -83 -65 c-357 -276 -770 -452 -1208 -514 -58 -8 -115 -17 -127 -19
-21 -5 -23 -2 -23 43 l0 49 113 16 c443 64 837 229 1181 496 43 34 79 61 80
61 1 0 17 -15 35 -34z"/>
<path d="M2395 4303 c6 -6 44 -25 85 -43 179 -78 308 -167 294 -204 -14 -36
-156 -16 -343 49 -57 20 -106 34 -109 31 -2 -3 4 -9 14 -12 10 -4 93 -36 183
-72 199 -77 219 -81 265 -54 l35 21 55 -22 c31 -12 56 -25 56 -29 0 -4 -11
-31 -24 -60 -13 -29 -26 -62 -28 -73 -2 -15 -17 -23 -63 -34 -73 -16 -411
-137 -442 -157 -26 -17 -30 -55 -8 -74 8 -7 29 -10 47 -7 37 5 365 124 415
150 43 23 52 21 59 -7 6 -26 93 -114 133 -136 23 -12 24 -11 17 11 -22 74 -19
92 28 182 25 48 46 94 46 104 0 29 19 1 28 -42 l9 -40 23 50 c13 27 23 68 24
92 0 24 3 43 6 43 13 0 79 -77 99 -114 41 -79 51 -210 20 -269 -6 -10 -8 -21
-5 -24 10 -10 113 76 142 118 15 22 32 38 38 35 6 -3 101 -41 211 -86 172 -69
203 -79 222 -69 12 7 25 19 28 27 14 37 -23 60 -229 141 -112 45 -210 81 -216
81 -7 0 -10 7 -6 16 4 9 -1 46 -10 81 -13 51 -14 67 -4 73 7 4 52 -11 107 -37
l95 -45 86 28 c119 40 243 104 266 137 l20 28 -29 87 c-16 48 -40 97 -52 110
-25 25 -68 28 -143 12 -66 -15 -242 -80 -262 -97 -9 -8 -31 -52 -49 -98 -34
-89 -61 -113 -86 -77 -37 53 -76 102 -82 102 -4 0 -5 -16 -3 -35 5 -39 -4 -85
-16 -85 -5 0 -16 24 -25 53 -21 64 -74 137 -129 177 -22 17 -44 30 -49 30 -4
0 -7 -19 -8 -42 0 -24 -7 -63 -15 -87 -23 -62 -85 -161 -102 -161 -8 0 -23 19
-34 43 -14 32 -19 37 -19 19 -1 -34 -21 -35 -84 -7 -46 20 -57 29 -57 48 0 50
-41 76 -245 157 -198 77 -192 76 -180 63z"/>
<path d="M3322 3293 c-22 -4 -23 -8 -20 -96 l3 -92 47 -3 c127 -8 190 102 98
169 -26 19 -87 29 -128 22z"/>
<path d="M3672 3198 l3 -93 37 -3 c126 -11 200 88 120 160 -29 25 -40 28 -98
28 l-65 0 3 -92z"/>
</g>
</svg>
